<svg xmlns="http://www.w3.org/2000/svg" viewBox="0 0 100 100" role="img" aria-label="Burger Builder">
  <title>Burger Builder</title>
  <rect x="1" y="1" width="98" height="98" rx="22" fill="#F4E7D2" stroke="#D8C29A" stroke-width="2"/>
  <g stroke="#3a2a1a" stroke-width="2.4" stroke-linejoin="round">
    <path d="M6 46 Q6 10 50 10 Q94 10 94 46 Z" fill="#F2A94C"/>
    <path d="M6 46 q7 -9 14 0 t14 0 t14 0 t14 0 t14 0 t14 0 v10 h-84 z" fill="#79C44B"/>
    <rect x="6" y="58" width="88" height="14" rx="6" fill="#6A3F1E"/>
    <path d="M10 74 h80 v3 q0 13 -15 13 h-50 q-15 0 -15 -13 z" fill="#E89A41"/>
  </g>
  <g fill="#FFF6E4">
    <ellipse cx="37" cy="30" rx="3.4" ry="1.9"/>
    <ellipse cx="50" cy="24" rx="3.4" ry="1.9"/>
    <ellipse cx="63" cy="30" rx="3.4" ry="1.9"/>
  </g>
</svg>
